<?xml version="1.0" encoding="UTF-8"?>
<!DOCTYPE svg PUBLIC "-//W3C//DTD SVG 1.1//EN" "http://www.w3.org/Graphics/SVG/1.1/DTD/svg11.dtd">
<!-- Creator: CorelDRAW 2018 (64 Bit Versión de evaluación) -->
<svg xmlns="http://www.w3.org/2000/svg" xml:space="preserve" width="279.4mm" height="215.9mm" version="1.1" style="shape-rendering:geometricPrecision; text-rendering:geometricPrecision; image-rendering:optimizeQuality; fill-rule:evenodd; clip-rule:evenodd"
viewBox="0 0 27940 21590"
 xmlns:xlink="http://www.w3.org/1999/xlink">
 <defs>
  <style type="text/css">
   <![CDATA[
    .fil2 {fill:white}
    .fil0 {fill:url(#id0)}
    .fil1 {fill:url(#id1)}
   ]]>
  </style>
  <linearGradient id="id0" gradientUnits="userSpaceOnUse" x1="13970" y1="15164.22" x2="13970" y2="5944.89">
   <stop offset="0" style="stop-opacity:1; stop-color:#1776B8"/>
   <stop offset="1" style="stop-opacity:1; stop-color:#31BAEC"/>
  </linearGradient>
  <linearGradient id="id1" gradientUnits="userSpaceOnUse" x1="13970" y1="15164.22" x2="13970" y2="5944.89">
   <stop offset="0" style="stop-opacity:1; stop-color:#036DFD"/>
   <stop offset="0.501961" style="stop-opacity:1; stop-color:#0192FF"/>
   <stop offset="1" style="stop-opacity:1; stop-color:#00B6F8"/>
  </linearGradient>
 </defs>
 <g id="Capa_x0020_1">
  <metadata id="CorelCorpID_0Corel-Layer"/>
  <g id="_3014658652848">
   <path class="fil0" d="M14018.22 2970.08c-4415.11,14.6 -8204.75,3207.61 -7882.87,7843.75 92.35,1329.17 250.52,2315.53 1011.79,3607.37 389.22,660.5 743.75,1081.85 1300,1600.1 118.54,110.46 237.65,237.52 300.37,391.75 67.52,166.07 77.51,653.36 81.98,990.93 5.2,394.04 -84.14,825.43 271.65,1096.31 375.5,285.98 773.87,-10.58 1155.57,-164.32 295.17,-126.6 843.06,-411.45 1121.66,-482.82 131.4,-33.67 245.25,-17.38 472.06,38.84 779.91,161.49 1347.62,247.18 2160.02,254.16 1192.41,10.22 2246.66,-209.3 3344.28,-683.35 2782.15,-1371.14 4355.46,-3586.69 4463.08,-6665.98 163.96,-4693.95 -3073.82,-7842.37 -7799.59,-7826.74z"/>
   <path class="fil1" d="M14018.22 2970.08c-4415.11,14.6 -8204.75,3207.61 -7882.87,7843.75 92.35,1329.17 250.52,2315.53 1011.79,3607.37 389.22,660.5 743.75,1081.85 1300,1600.1 118.54,110.46 237.65,237.52 300.37,391.75 67.52,166.07 77.51,653.36 81.98,990.93 5.2,394.04 -84.14,825.43 271.65,1096.31 375.5,285.98 773.87,-10.58 1155.57,-164.32 295.17,-126.6 843.06,-411.45 1121.66,-482.82 131.4,-33.67 245.25,-17.38 472.06,38.84 779.91,161.49 1347.62,247.18 2160.02,254.16 1192.41,10.22 2246.66,-209.3 3344.28,-683.35 2782.15,-1371.14 4355.46,-3586.69 4463.08,-6665.98 163.96,-4693.95 -3073.82,-7842.37 -7799.59,-7826.74z"/>
   <path class="fil2" d="M15416.31 10286.83c-238.31,0 -392.58,-172.3 -562.37,-298.59l-1414.57 -1063.32c-311.68,-233.82 -463.33,-339.01 -920.93,-339.01 -354.41,0 -647.66,191.04 -855.23,446.7 -37.58,46.27 -70.59,113.04 -106.46,166.53 -37.17,55.43 -62.45,93.64 -101,150.99l-511.29 811.66c-33.86,56.34 -57.02,96.34 -93.88,158.11l-608.88 966.04c-234.13,382.27 -496.17,742.46 -712.02,1135.9 -90.42,164.8 -294.74,356.64 -303.42,550 -4.86,108.11 35.04,210.23 115.16,282.02 156.56,140.3 352.18,124.38 500.84,5.54 67.33,-53.83 118.21,-79.54 182.29,-132.7 63.7,-52.85 111.02,-88.21 179.97,-135l937.12 -721.83c3.37,-2.75 8.18,-6.67 11.63,-9.36l1183.92 -894.99c268.75,-171.17 465.54,-21.21 660.96,121.53l1524.18 1142.7c406.63,304 896.39,574.6 1483.36,220.37 263.5,-159.02 430.2,-388.23 580.09,-658.86 52.94,-95.59 102.77,-157.04 154.89,-244.08l1111.75 -1765.13c53.53,-80.39 96.08,-162.99 150.8,-248.17l551.25 -876.7c82.37,-122.82 197.09,-252.44 227.76,-402.71 61.37,-300.68 -292.63,-563.82 -606.35,-332.86l-144.49 107.5c-3.37,2.76 -8.09,6.78 -11.42,9.58l-22.49 19.5c-63.4,53.81 -115.91,81.24 -180.96,134.04 -507.51,411.89 -1058.6,771.1 -1560.01,1190.85l-408.2 305.78c-128.44,96.27 -216.84,197.97 -432,197.97z"/>
  </g>
 </g>
</svg>
